<?xml version="1.0" standalone="no"?>
<!DOCTYPE svg PUBLIC "-//W3C//DTD SVG 20010904//EN"
 "http://www.w3.org/TR/2001/REC-SVG-20010904/DTD/svg10.dtd">
<svg version="1.0" xmlns="http://www.w3.org/2000/svg"
 width="736.000000pt" height="736.000000pt" viewBox="0 0 736.000000 736.000000"
 preserveAspectRatio="xMidYMid meet">
<metadata>
Created by potrace 1.14, written by Peter Selinger 2001-2017
</metadata>
<g transform="translate(0.000000,736.000000) scale(0.100000,-0.100000)"
fill="#000000" stroke="none">
<path d="M724 7031 c-120 -30 -220 -135 -238 -251 -13 -86 -37 -270 -41 -315
-3 -27 -7 -61 -9 -75 -3 -14 -8 -52 -11 -85 -3 -33 -8 -73 -11 -90 -3 -16 -7
-55 -9 -85 -2 -30 -5 -55 -5 -55 -3 0 -8 -34 -14 -100 -4 -38 -9 -83 -11 -100
-2 -16 -7 -59 -10 -95 -3 -36 -8 -76 -10 -90 -4 -31 -13 -113 -21 -205 -11
-132 -13 -150 -18 -215 -4 -36 -8 -83 -11 -105 -2 -22 -7 -78 -11 -125 -3 -47
-8 -107 -10 -135 -3 -27 -7 -72 -9 -100 -2 -27 -6 -75 -9 -105 -11 -118 -19
-237 -20 -282 -1 -27 -3 -48 -6 -48 -3 0 -6 -19 -6 -43 -1 -23 -4 -80 -8 -127
-14 -174 -16 -207 -21 -275 -9 -126 -14 -209 -20 -290 -2 -44 -7 -118 -10
-165 -4 -47 -8 -111 -10 -142 -1 -31 -6 -61 -10 -67 -3 -6 -1 -11 5 -11 6 0 9
-4 6 -9 -6 -9 -12 -76 -21 -226 -10 -170 -15 -253 -20 -325 -3 -41 -8 -109
-10 -150 -9 -146 -15 -246 -20 -310 -3 -36 -7 -112 -11 -170 -3 -58 -7 -136
-9 -175 -2 -38 -7 -126 -10 -195 -3 -69 -8 -154 -10 -190 -3 -57 -13 -250 -20
-395 -1 -27 -6 -117 -10 -200 -12 -219 -12 -225 9 -285 38 -113 128 -194 238
-216 18 -4 226 -8 463 -8 470 -2 481 -1 574 58 42 27 96 92 112 136 5 14 12
32 15 40 10 23 13 67 19 258 3 97 8 254 11 347 3 94 7 223 7 287 1 65 4 118 7
118 3 0 6 39 6 88 1 91 12 407 14 407 1 0 3 61 6 135 2 74 6 185 9 245 3 61 7
151 9 200 6 136 17 352 21 425 2 36 7 119 10 185 4 66 8 143 10 170 1 28 6
104 10 170 13 241 20 267 78 325 95 93 251 91 336 -5 16 -19 37 -50 45 -70 31
-69 45 -101 79 -185 20 -47 44 -103 53 -125 10 -22 18 -42 19 -45 1 -3 7 -16
13 -30 43 -100 72 -175 72 -186 0 -7 3 -14 8 -16 4 -1 27 -52 51 -113 45 -112
161 -394 187 -452 14 -34 34 -79 58 -135 7 -18 24 -55 36 -83 12 -27 28 -66
35 -86 7 -19 22 -55 33 -80 11 -24 57 -132 102 -239 146 -347 200 -474 222
-519 12 -25 21 -51 21 -58 0 -7 4 -13 9 -13 4 0 7 -3 6 -7 -5 -26 66 -158 113
-207 64 -69 121 -89 264 -93 66 -2 126 -5 133 -8 6 -2 12 -1 12 3 0 4 37 6 82
4 223 -6 441 1 446 16 2 7 10 12 18 12 19 0 60 27 100 65 30 28 63 84 97 165
8 19 25 58 37 85 13 28 23 56 23 63 0 6 3 12 7 12 3 0 12 17 19 38 15 41 41
103 100 234 12 26 21 49 21 51 0 3 10 26 22 53 12 27 23 54 24 59 1 6 11 30
22 55 20 43 127 300 247 595 67 164 72 177 73 188 1 4 8 20 16 35 18 34 46 98
92 209 20 49 44 106 54 128 18 40 39 89 119 280 55 128 70 163 87 199 8 16 14
33 14 38 0 20 62 136 88 164 66 72 177 92 268 50 98 -46 131 -111 138 -272 3
-60 8 -138 11 -174 2 -36 7 -108 10 -160 3 -52 7 -138 10 -190 12 -208 20
-366 30 -603 3 -60 7 -113 11 -118 3 -5 0 -9 -6 -9 -6 0 -8 -5 -5 -10 4 -6 8
-50 10 -98 14 -322 23 -551 29 -775 2 -48 5 -90 8 -93 4 -3 2 -18 -2 -34 -4
-16 -6 -31 -3 -34 3 -3 7 -50 9 -103 1 -54 5 -179 9 -278 3 -99 7 -230 9 -292
5 -134 10 -163 45 -228 41 -77 125 -144 201 -159 3 -1 10 -4 15 -6 16 -9 854
-4 910 4 28 4 56 13 63 18 6 6 12 7 12 4 0 -12 84 51 114 86 26 29 50 75 64
118 6 19 5 226 -2 345 -3 50 -8 135 -11 190 -5 107 -10 190 -21 350 -7 115
-10 167 -18 320 -3 60 -8 139 -11 175 -2 36 -7 119 -11 185 -3 66 -8 145 -10
175 -2 30 -6 105 -9 165 -2 61 -7 139 -10 175 -3 36 -8 108 -11 160 -9 151
-13 210 -19 285 -2 39 -7 108 -10 155 -5 92 -12 201 -20 295 -3 33 -7 94 -9
135 -3 41 -7 102 -10 135 -7 74 -18 239 -22 320 -1 33 -3 60 -4 60 -1 0 -3 25
-5 55 -9 127 -15 218 -19 265 -3 28 -8 84 -11 125 -4 41 -8 93 -10 115 -2 22
-6 69 -9 105 -11 126 -17 186 -21 230 -3 25 -7 70 -10 100 -12 139 -16 177
-31 315 -4 33 -8 76 -9 95 -1 19 -5 62 -9 95 -3 33 -9 85 -11 115 -8 77 -18
174 -30 283 -3 26 -8 71 -11 100 -3 28 -7 68 -10 87 -3 19 -7 58 -10 85 -2 28
-6 64 -9 80 -2 17 -7 53 -10 80 -3 28 -8 65 -10 82 -3 18 -8 57 -11 85 -13
108 -79 204 -179 256 l-50 27 -505 3 c-445 2 -512 0 -555 -14 -74 -24 -146
-85 -184 -154 -26 -49 -309 -616 -334 -670 -49 -107 -95 -206 -140 -300 -24
-52 -55 -117 -67 -145 -12 -27 -33 -71 -45 -97 -13 -25 -21 -49 -18 -52 4 -3
1 -6 -5 -6 -7 0 -12 -6 -12 -12 0 -7 -11 -35 -24 -63 -38 -77 -78 -166 -208
-465 -192 -441 -187 -431 -199 -452 -5 -10 -9 -25 -9 -33 0 -8 -5 -15 -12 -15
-6 0 -9 -3 -6 -6 4 -3 -5 -30 -18 -59 -13 -30 -31 -71 -40 -92 -9 -21 -18 -42
-19 -48 -1 -5 -12 -30 -23 -55 -11 -25 -33 -74 -47 -110 -15 -36 -34 -81 -42
-100 -8 -19 -19 -44 -23 -55 -5 -11 -22 -51 -38 -90 -16 -38 -36 -87 -43 -107
-7 -21 -17 -38 -22 -38 -4 0 -6 -4 -3 -8 5 -9 -33 -71 -68 -111 -12 -12 -48
-37 -81 -54 -49 -25 -74 -31 -135 -33 -42 -2 -80 2 -87 8 -7 6 -13 8 -13 4 0
-3 -23 5 -51 20 -47 23 -139 107 -139 126 0 4 -11 31 -24 60 -14 30 -34 78
-46 108 -22 57 -33 83 -69 162 -11 26 -21 50 -21 53 0 3 -10 27 -21 53 -38 84
-68 155 -74 172 -2 6 -14 33 -60 140 -47 107 -58 134 -60 140 -1 3 -12 28 -24
55 -13 28 -39 86 -58 130 -19 44 -43 98 -53 120 -71 153 -100 217 -100 220 0
2 -16 39 -35 82 -20 43 -40 87 -45 98 -5 11 -38 85 -74 165 -35 80 -77 172
-92 205 -15 33 -28 62 -29 65 -3 10 -54 117 -106 225 -29 61 -54 112 -54 115
-1 3 -22 47 -48 98 -26 52 -47 100 -47 107 0 7 -4 15 -8 17 -4 2 -22 35 -39
75 -18 39 -79 165 -135 279 -112 224 -147 271 -234 315 l-49 24 -535 2 c-294
1 -549 -2 -566 -6z"/>
</g>
</svg>
