<svg width="205" height="42" viewBox="0 0 205 42" fill="none" xmlns="http://www.w3.org/2000/svg">
<path d="M10.8755 0.00012207C11.6112 0.00012207 12.2893 0.402998 12.6254 1.0574C13.1936 2.16384 13.8171 3.44907 14.4957 4.9131C15.4424 6.83036 16.4087 8.92737 17.3948 11.2041C18.4204 13.4409 19.4262 15.7376 20.4123 18.0943C20.73 18.8534 21.0415 19.598 21.3468 20.3282C22.0321 21.9666 24.3541 21.9666 25.0394 20.3282C25.3448 19.598 25.6563 18.8534 25.9739 18.0943C26.96 15.7376 27.9461 13.4409 28.9322 11.2041C29.9578 8.92737 30.9242 6.83036 31.8314 4.9131C32.5398 3.44839 33.182 2.16264 33.7579 1.05586C34.0975 0.403256 34.7751 0.00012207 35.5107 0.00012207H40.9838C41.9789 0.00012207 42.8239 0.731309 42.9529 1.71801C43.2547 4.02514 43.5313 6.54809 43.7829 9.28685C44.1379 12.682 44.4338 16.2369 44.6704 19.9516C44.9465 23.6264 45.1832 27.3211 45.3804 31.0358C45.5673 33.9691 45.7296 36.7655 45.8673 39.4249C45.9263 40.5657 45.0158 41.5208 43.8734 41.5208H38.921C37.8393 41.5208 36.9538 40.6608 36.9197 39.5796C36.8096 36.0877 36.6715 32.341 36.5055 28.3396C36.3907 25.5725 36.2425 22.7919 36.0608 19.9977C35.9599 18.4462 33.8607 18.1018 33.2514 19.5322C32.3836 21.5693 31.5158 23.6064 30.648 25.6435C29.8197 27.6806 29.0111 29.6378 28.2222 31.5151C27.6646 32.8138 27.1661 33.9829 26.7267 35.0222C26.4129 35.7646 25.686 36.2483 24.8801 36.2483H21.092C20.286 36.2483 19.5592 35.7646 19.2453 35.0222C18.806 33.9829 18.3075 32.8138 17.7498 31.5151C16.961 29.6378 16.1326 27.6806 15.2649 25.6435C14.4365 23.6064 13.5885 21.5693 12.7207 19.5322C12.1114 18.1018 10.0121 18.4462 9.91127 19.9977C9.72962 22.7919 9.58139 25.5725 9.46658 28.3396C9.30055 32.341 9.16248 36.0877 9.05236 39.5796C9.01826 40.6608 8.13279 41.5208 7.05105 41.5208H2.09866C0.956306 41.5208 0.0459178 40.5657 0.102182 39.4248C0.233322 36.7654 0.37676 33.9691 0.532495 31.0358C0.76916 27.3211 1.00582 23.6264 1.24249 19.9516C1.5186 16.2369 1.81443 12.682 2.12998 9.28685C2.41303 6.54796 2.70862 4.0249 3.01674 1.71769C3.14847 0.731336 3.99317 0.00012207 4.98828 0.00012207H10.8755Z" fill="#007BFB"/>
<path d="M71.5974 41.5208C70.7154 41.5208 69.9399 40.9422 69.669 40.1028C69.3505 39.1157 69.005 38.1105 68.6327 37.0871C68.2731 36.0226 67.9134 34.958 67.5538 33.8935C67.2792 33.0808 66.5169 32.5336 65.659 32.5336H52.5549C51.697 32.5336 50.9356 33.0811 50.6554 33.8919C50.2873 34.957 49.9095 36.0221 49.522 37.0871C49.1765 38.1099 48.8489 39.1145 48.5392 40.101C48.275 40.9426 47.4985 41.5208 46.6165 41.5208H41.3198C39.9467 41.5208 38.9821 40.1687 39.4327 38.8716C40.6374 35.4035 41.7916 32.1525 42.8954 29.1185C44.276 25.3239 45.6171 21.749 46.9187 18.3938C48.2598 15.0386 49.5615 11.8632 50.8237 8.86745C51.9546 6.23005 53.1152 3.65294 54.3057 1.13614C54.6345 0.44084 55.3363 0.00012207 56.1054 0.00012207H62.3886C63.1659 0.00012207 63.8733 0.450151 64.1987 1.15599C65.3562 3.66649 66.499 6.23698 67.6269 8.86745C68.9285 11.8632 70.2302 15.0386 71.5318 18.3938C72.8729 21.749 74.2338 25.3239 75.6143 29.1185C76.7181 32.1525 77.8724 35.4035 79.0771 38.8716C79.5276 40.1687 78.563 41.5208 77.1899 41.5208H71.5974ZM59.9944 11.8632C59.6806 11.0368 58.4742 11.0368 58.1603 11.8632C57.7659 12.9017 57.3123 14.1 56.7995 15.458C56.2867 16.8161 55.7148 18.314 55.0837 19.9516C54.7906 20.7627 54.4928 21.5934 54.19 22.4436C53.7277 23.7423 54.6929 25.1043 56.0714 25.1043H62.0833C63.4618 25.1043 64.427 23.7423 63.9647 22.4436C63.662 21.5934 63.3641 20.7627 63.0711 19.9516C62.4794 18.314 61.9075 16.8161 61.3553 15.458C60.8425 14.1 60.3889 12.9017 59.9944 11.8632Z" fill="#007BFB"/>
<path d="M97.5654 41.5208C96.8043 41.5208 96.1106 41.088 95.7655 40.4096C94.7725 38.4574 93.6959 36.4912 92.5358 34.5108C91.5964 32.832 90.5505 31.1336 89.3981 29.4155C88.6506 28.3012 87.0491 28.2836 86.2861 29.3874C86.1091 29.6435 85.9243 29.9133 85.7317 30.197C84.9034 31.4751 84.0553 32.8332 83.1876 34.2712C82.3592 35.7091 81.5704 37.0871 80.8209 38.4052C80.3946 39.155 80.0322 39.8143 79.7335 40.3831C79.3726 41.0705 78.6682 41.5208 77.8918 41.5208H71.9751C70.4632 41.5208 69.5024 39.9102 70.2515 38.5969C71.5871 36.2553 73.0591 33.8348 74.6676 31.3353C76.7767 28.1137 79.0963 24.7116 81.6264 21.1291C82.1027 20.4547 82.1189 19.5573 81.6644 18.868L71.2689 3.10102C70.3921 1.77126 71.3458 0.00012207 72.9386 0.00012207H79.2909C79.9845 0.00012207 80.6285 0.359472 80.9928 0.949694L86.6731 10.153C87.4591 11.4265 89.3141 11.4173 90.0873 10.1359L95.6208 0.966753C95.9828 0.366826 96.6324 0.00012207 97.3331 0.00012207H103.061C104.646 0.00012207 105.601 1.7553 104.74 3.08606L94.4817 18.9519C94.0241 19.6597 94.0603 20.5779 94.5658 21.2524C97.5088 25.1797 100.007 28.8402 102.062 32.2341C103.514 34.6075 104.768 36.7394 105.826 38.6296C106.557 39.9377 105.599 41.5208 104.1 41.5208H97.5654Z" fill="#007BFB"/>
<path d="M125.044 0.000132387C131.157 0.000132387 135.851 1.09856 139.125 3.29542C142.399 5.45234 144.036 9.00726 144.036 13.9602C144.036 18.9531 142.379 22.5679 139.066 24.8047C135.753 27.0016 131.019 28.1 124.866 28.1H123.967C122.862 28.1 121.967 28.9954 121.967 30.1V40.0001C121.967 41.1047 121.072 42.0001 119.967 42.0001H114.737C113.633 42.0001 112.737 41.1047 112.737 40.0001V2.72052C112.737 1.76612 113.411 0.940386 114.353 0.787652C115.88 0.540059 117.471 0.357439 119.127 0.23979C121.375 0.0800184 123.348 0.000132387 125.044 0.000132387ZM125.635 7.96875C124.965 7.96875 124.294 7.98872 123.624 8.02866C122.686 8.08798 121.967 8.87039 121.967 9.80951V18.1314C121.967 19.2359 122.862 20.1314 123.967 20.1314H124.866C128.061 20.1314 130.467 19.692 132.084 18.8133C133.702 17.9345 134.51 16.2968 134.51 13.9003C134.51 12.7419 134.293 11.7833 133.859 11.0244C133.465 10.2655 132.873 9.66632 132.084 9.22695C131.335 8.74763 130.408 8.42809 129.304 8.26832C128.199 8.0686 126.976 7.96875 125.635 7.96875Z" fill="#007BFB"/>
<path d="M171.093 42.0001C170.211 42.0001 169.435 41.4216 169.164 40.5821C168.846 39.5951 168.5 38.5898 168.128 37.5665C167.768 36.5019 167.409 35.4374 167.049 34.3728C166.775 33.5601 166.012 33.013 165.154 33.013H152.05C151.192 33.013 150.431 33.5604 150.151 34.3712C149.783 35.4363 149.405 36.5014 149.017 37.5665C148.672 38.5892 148.344 39.5939 148.035 40.5804C147.77 41.4219 146.994 42.0001 146.112 42.0001H140.815C139.442 42.0001 138.478 40.648 138.928 39.3509C140.133 35.8829 141.287 32.6318 142.391 29.5978C143.771 25.8033 145.113 22.2284 146.414 18.8732C147.755 15.518 149.057 12.3425 150.319 9.34678C151.45 6.70937 152.611 4.13227 153.801 1.61547C154.13 0.920166 154.832 0.479448 155.601 0.479448H161.884C162.661 0.479448 163.369 0.929478 163.694 1.63532C164.852 4.14582 165.994 6.71631 167.122 9.34678C168.424 12.3425 169.726 15.518 171.027 18.8732C172.368 22.2284 173.729 25.8033 175.11 29.5978C176.214 32.6318 177.368 35.8829 178.572 39.3509C179.023 40.648 178.058 42.0001 176.685 42.0001H171.093ZM159.49 12.3425C159.176 11.5161 157.97 11.5161 157.656 12.3425C157.261 13.381 156.808 14.5793 156.295 15.9374C155.782 17.2954 155.21 18.7933 154.579 20.4309C154.286 21.242 153.988 22.0727 153.685 22.923C153.223 24.2217 154.188 25.5836 155.567 25.5836H161.579C162.957 25.5836 163.922 24.2217 163.46 22.923C163.157 22.0727 162.86 21.242 162.566 20.4309C161.975 18.7933 161.403 17.2954 160.851 15.9374C160.338 14.5793 159.884 13.381 159.49 12.3425Z" fill="#007BFB"/>
<path d="M185.249 14.5832C185.996 15.9187 187.901 15.919 188.654 14.5863C189.697 12.74 190.706 10.8936 191.682 9.04721C192.973 6.60394 194.177 4.14585 195.292 1.67294C195.619 0.949416 196.336 0.479448 197.13 0.479448H202.756C204.245 0.479448 205.211 2.04689 204.527 3.36907C202.739 6.82543 200.903 10.196 199.018 13.4809C196.705 17.5129 194.264 21.5634 191.696 25.6324C191.494 25.9529 191.386 26.324 191.386 26.703V40.0001C191.386 41.1047 190.491 42.0001 189.386 42.0001H184.156C183.051 42.0001 182.156 41.1047 182.156 40.0001V26.8228C182.156 26.4438 182.048 26.0727 181.846 25.7523C179.276 21.6818 176.816 17.6113 174.464 13.5408C172.58 10.2239 170.743 6.83357 168.955 3.36965C168.272 2.04692 169.238 0.479448 170.726 0.479448H176.886C177.679 0.479448 178.397 0.949329 178.722 1.67336C179.833 4.14613 181.017 6.60408 182.274 9.04721C183.224 10.8925 184.215 12.7379 185.249 14.5832Z" fill="#007BFB"/>
</svg>
